<svg width="39" height="37" viewBox="0 0 39 37" fill="none" xmlns="http://www.w3.org/2000/svg">
<path d="M15.4014 33.2194H23.7548V21.0613H15.4014V33.2194ZM22.2407 31.7441H16.9154V22.5365H22.1885V31.7441H22.2407Z" fill="#81B3D2"/>
<path d="M37.9036 20.0431L39 18.9748L33.8313 13.9386V0.203483H26.6265V6.91843L19.4739 0L0 19.0257L1.09639 20.094L5.16867 16.126V35.3552H3.13253V36.8305H36.494V35.3552H33.8313V16.0752L37.9036 20.0431ZM28.1406 1.72961H32.2651V12.4633L28.1406 8.44455V1.72961ZM32.3173 35.3043H6.73494V14.5999L19.4739 2.13657L32.2651 14.5999V35.3043H32.3173Z" fill="#81B3D2"/>
<path d="M15.5581 13.8369C15.5581 16.0243 17.3854 17.8048 19.5782 17.8048C21.8232 17.8048 23.6505 16.0243 23.6505 13.8369C23.6505 11.6494 21.8232 9.9198 19.5782 9.9198C17.3332 9.9198 15.5581 11.6494 15.5581 13.8369ZM19.5782 11.2933C20.9878 11.2933 22.1886 12.4125 22.1886 13.8369C22.1886 15.2104 21.04 16.3804 19.5782 16.3804C18.1685 16.3804 16.9677 15.2612 16.9677 13.8369C16.9677 12.4633 18.1685 11.2933 19.5782 11.2933Z" fill="#81B3D2"/>
<path d="M10.3895 21.0613H8.82324V23.0452H10.3895V21.0613Z" fill="#81B3D2"/>
<path d="M13.4698 21.0613H11.9036V23.0452H13.4698V21.0613Z" fill="#81B3D2"/>
<path d="M10.3895 24.1128H8.82324V26.0968H10.3895V24.1128Z" fill="#81B3D2"/>
<path d="M13.4698 24.1128H11.9036V26.0968H13.4698V24.1128Z" fill="#81B3D2"/>
<path d="M27.0443 21.0613H25.478V23.0452H27.0443V21.0613Z" fill="#81B3D2"/>
<path d="M30.1769 21.0613H28.6106V23.0452H30.1769V21.0613Z" fill="#81B3D2"/>
<path d="M27.0443 24.1128H25.478V26.0968H27.0443V24.1128Z" fill="#81B3D2"/>
<path d="M30.1769 24.1128H28.6106V26.0968H30.1769V24.1128Z" fill="#81B3D2"/>
</svg>
