<svg width="40" height="35" viewBox="0 0 40 35" fill="none" xmlns="http://www.w3.org/2000/svg">
<path d="M37.7428 23.3004H2.25722C0.997375 23.3004 0 24.3135 0 25.4785V27.2514C0 28.4164 0.997375 29.3788 2.25722 29.3788H2.78215V29.8853C2.78215 32.6712 5.14436 34.9 7.979 34.9H32.021C34.9081 34.9 37.2178 32.6206 37.2178 29.8853V29.3788H37.7428C38.9501 29.3788 40 28.4164 40 27.2007V25.4278C40 24.3135 39.0026 23.3004 37.7428 23.3004ZM35.6955 29.8853C35.6955 31.8101 34.0682 33.3804 32.0735 33.3804H7.92651C5.93176 33.3804 4.30446 31.8101 4.30446 29.8853V29.3788H35.6955V29.8853ZM38.4252 27.2007C38.4252 27.5553 38.1102 27.8592 37.7428 27.8592H2.25722C1.88976 27.8592 1.5748 27.5553 1.5748 27.2007V25.4278C1.5748 25.1239 1.88976 24.82 2.25722 24.82H37.7953C38.1627 24.82 38.4777 25.1239 38.4777 25.4785V27.2007H38.4252Z" fill="#81B3D2"/>
<path d="M8.50404 19.1973L11.3387 21.2234L14.2258 19.1973L17.113 21.2234L20.0001 19.1973L22.8348 21.2234L25.7219 19.1973L28.609 21.2234L31.4962 19.1973L34.3833 21.2234L37.6904 18.8427L36.798 17.627L34.3833 19.2986L31.4962 17.2725L28.609 19.2986L25.7219 17.2725L22.8348 19.2986L20.0001 17.2725L17.113 19.2986L14.2258 17.2725L11.3387 19.2986L8.50404 17.2725L5.6169 19.2986L3.20221 17.627L2.25732 18.8427L5.6169 21.2234L8.50404 19.1973Z" fill="#81B3D2"/>
<path d="M37.2179 15.7531C37.2179 15.4492 37.2704 14.4361 37.2179 14.2335C36.8505 6.33164 29.2914 0 20.0001 0C10.7087 0 3.09719 6.33164 2.72974 14.2335C2.72974 14.4361 2.72974 15.4492 2.72974 15.7531H37.2179ZM20.0001 1.51959C28.399 1.51959 35.3282 7.19274 35.6431 14.2335H4.30454C4.67199 7.19274 11.6011 1.51959 20.0001 1.51959Z" fill="#81B3D2"/>
<path d="M20.0001 8.61109C20.5799 8.61109 21.0499 8.15752 21.0499 7.59802C21.0499 7.03852 20.5799 6.58496 20.0001 6.58496C19.4202 6.58496 18.9502 7.03852 18.9502 7.59802C18.9502 8.15752 19.4202 8.61109 20.0001 8.61109Z" fill="#81B3D2"/>
<path d="M15.8006 6.12866C16.3804 6.12866 16.8505 5.6751 16.8505 5.1156C16.8505 4.5561 16.3804 4.10254 15.8006 4.10254C15.2208 4.10254 14.7507 4.5561 14.7507 5.1156C14.7507 5.6751 15.2208 6.12866 15.8006 6.12866Z" fill="#81B3D2"/>
<path d="M24.1995 6.12866C24.7794 6.12866 25.2494 5.6751 25.2494 5.1156C25.2494 4.5561 24.7794 4.10254 24.1995 4.10254C23.6197 4.10254 23.1497 4.5561 23.1497 5.1156C23.1497 5.6751 23.6197 6.12866 24.1995 6.12866Z" fill="#81B3D2"/>
</svg>
